<?xml version="1.0" encoding="utf-8"?>
<!-- Generator: Adobe Illustrator 19.0.0, SVG Export Plug-In . SVG Version: 6.00 Build 0)  -->
<svg version="1.1" id="Layer_1" xmlns="http://www.w3.org/2000/svg" xmlns:xlink="http://www.w3.org/1999/xlink" x="0px" y="0px"
	 viewBox="0 199.4 1920 400.6" style="enable-background:new 0 199.4 1920 400.6;" xml:space="preserve">
<style type="text/css">
	.st0{fill:#FFFFFF;}
	.st1{fill:#DEDDDD;}
	.st2{fill:#EEEEEE;}
	.st3{opacity:0.8;fill:#EEEEEE;enable-background:new    ;}
	.st4{fill:#CCCCCC;}
	.st5{opacity:0.8;fill:#DEDDDD;enable-background:new    ;}
</style>
<g id="Layer_1_1_">
</g>
<g id="Layer_2">
	<g id="XMLID_17_">
		<ellipse class="st0" cx="530.9" cy="652.3" rx="499.7" ry="426.7"/>
		<ellipse class="st1" cx="861.7" cy="385.5" rx="262.6" ry="116.9"/>
		<path id="XMLID_32_" class="st2" d="M126.1,373.5c55.6-48.8,127.4-79.5,206.3-82.9c-59.4-56.5-139.8-91.2-228.3-91.2
			c-36.1,0-70.9,5.8-103.5,16.5v155.7c18.9-4.6,38.7-7.1,59.1-7.1C82.7,364.5,105,367.6,126.1,373.5z"/>
		<path id="XMLID_38_" class="st2" d="M184.7,589.7c45-122.3,162.5-209.6,300.4-209.6c28.2,0,55.5,3.7,81.5,10.5
			c5.5-3.6,11.2-7,17.1-10.1c-37-14.3-77.3-22.2-119.4-22.2c-24.9,0-49.2,2.8-72.5,8c-16.1-28.1-36.1-53.6-59.4-75.8
			c-78.9,3.4-150.7,34.1-206.3,82.9c-21.1-5.9-43.4-9-66.4-9c-20.4,0-40.2,2.5-59.1,7.1v189.1c19.2-5.4,39.5-8.2,60.4-8.2
			C106.7,552.5,149.2,566.2,184.7,589.7z"/>
		<path class="st3" d="M464.3,358.3c-24.9,0-49.2,2.8-72.5,8c-16.1-28.1-36.1-53.6-59.4-75.8c0,0-0.1,0-0.1,0
			c-59.4-56.4-139.7-91.1-228.2-91.1c-36.1,0-70.9,5.8-103.5,16.5v155.6v0.1v189c19.2-5.4,39.5-8.2,60.4-8.2
			c45.7,0.1,88.2,13.8,123.7,37.3c45-122.3,162.5-209.6,300.4-209.6c28.2,0,55.5,3.7,81.5,10.5c5.5-3.6,11.2-7,17.1-10.1
			C546.7,366.2,506.4,358.3,464.3,358.3z"/>
		<ellipse class="st4" cx="1460.4" cy="626.1" rx="499.7" ry="426.7"/>
		<ellipse class="st2" cx="1871.7" cy="626.1" rx="735.2" ry="426.7"/>
	</g>
	<g>
		<path class="st2" d="M899.2,326.4c-22-19.1-50.6-30.7-82.1-30.7c-43.8,0-82.3,22.5-104.6,56.7c-44.1-40.7-103.1-65.7-167.9-65.7
			c-34,0-66.4,6.9-95.9,19.3c-32-10.2-66.1-15.7-101.5-15.7c-4.9,0-9.9,0.1-14.7,0.3c23.3,22.2,43.3,47.7,59.4,75.8
			c23.3-5.2,47.6-8,72.5-8c42.1,0,82.4,7.9,119.4,22.2c31.3-16.6,67-26,104.9-26c64,0,121.8,26.8,162.7,69.9
			c7.2-0.5,14.4-0.8,21.8-0.8c30.5,0,59.9,4.8,87.5,13.7v-63.8C935.8,363.1,914.5,346.7,899.2,326.4z"/>
	</g>
</g>
<g id="Layer_2_1_">
	<g id="XMLID_1_">
		<path class="st2" d="M1068.9,424.3c-7.2-0.6-14.5-0.8-21.8-0.8c-30.4,0-59.8,4.8-87.3,13.6c-27.4-8.7-56.5-13.4-86.7-13.4
			c-7.3,0-14.6,0.2-21.8,0.8c21,22.2,37.6,48.6,48.3,77.9c16.7-14.6,37.8-24.4,61-27.1v-0.1c22.8,2.9,43.5,12.6,60,27
			C1031.3,472.9,1047.9,446.5,1068.9,424.3z"/>
		<path class="st3" d="M1068.9,424.3c-7.2-0.6-14.5-0.8-21.8-0.8c-30.4,0-59.8,4.8-87.3,13.6c-27.4-8.7-56.5-13.4-86.7-13.4
			c-7.3,0-14.6,0.2-21.8,0.8c21,22.2,37.6,48.6,48.3,77.9c16.7-14.6,37.8-24.4,61-27.1v-0.1c22.8,2.9,43.5,12.6,60,27
			C1031.3,472.9,1047.9,446.5,1068.9,424.3z"/>
	</g>
	<g>
		<path class="st2" d="M1021,326.2c22-19.1,50.6-30.7,82.1-30.7c43.8,0,82.3,22.5,104.6,56.7c44.1-40.7,103.1-65.7,167.9-65.7
			c34,0,66.4,6.9,95.9,19.3c32-10.2,66.1-15.7,101.5-15.7c4.9,0,9.9,0.1,14.7,0.3c-23.3,22.2-43.3,47.7-59.4,75.8
			c-23.3-5.2-47.6-8-72.5-8c-42.1,0-82.4,7.9-119.4,22.2c-31.3-16.6-67-26-104.9-26c-64,0-121.8,26.8-162.7,69.9
			c-7.2-0.5-14.4-0.8-21.8-0.8c-30.5,0-59.9,4.8-87.5,13.7v-63.8C984.4,362.9,1005.7,346.5,1021,326.2z"/>
	</g>
	<path class="st5" d="M1860.5,364.2c-23,0-45.3,3.1-66.4,9c-55.6-48.8-127.4-79.5-206.3-82.9c0,0-0.1,0.1-0.1,0.1
		c-4.8-0.2-9.8-0.3-14.7-0.3c-35.4,0-69.5,5.5-101.5,15.7c-29.5-12.4-61.9-19.3-95.9-19.3c-64.8,0-123.8,25-167.9,65.7
		c-22.3-34.2-60.8-56.7-104.6-56.7c-31.4,0-60.1,11.6-82.1,30.7c-15.3,20.3-36.4,36.6-61.2,47.1c-24.6-10.5-45.5-26.7-60.7-46.9
		c-22-19.1-50.6-30.7-82.1-30.7c-43.8,0-82.3,22.5-104.6,56.7c-44.1-40.7-103.1-65.7-167.9-65.7c-34,0-66.4,6.9-95.9,19.3
		c-32-10.2-66.1-15.7-101.5-15.7c-4.9,0-9.9,0.1-14.7,0.3c23.3,22.2,43.3,47.7,59.4,75.8c23.3-5.2,47.6-8,72.5-8
		c42.1,0,82.4,7.9,119.4,22.2c31.3-16.6,67-26,104.9-26c64,0,121.8,26.8,162.7,69.9c7.2-0.5,14.4-0.8,21.8-0.8
		c30.1,0,59,4.7,86.3,13.3v0.2c0.1,0,0.2-0.1,0.3-0.1c0.3,0.1,0.6,0.2,0.9,0.3v-0.6c27.3-8.7,56.2-13.3,86.3-13.3
		c7.4,0,14.6,0.3,21.8,0.8c40.9-43.1,98.7-69.9,162.7-69.9c37.9,0,73.6,9.4,104.9,26c0.1,0,0.1,0,0.2-0.1c5.9,3.1,11.6,6.5,17,10.1
		c26-6.8,53.3-10.5,81.5-10.5c137.9,0,255.4,87.3,300.4,209.6c35.5-23.5,78-37.2,123.7-37.3c20.9,0,41.2,2.8,60.4,8.2V371.3
		C1900.7,366.7,1880.9,364.2,1860.5,364.2z M1528.4,366.1c15.1-26.3,33.6-50.3,55-71.5C1562,315.8,1543.5,339.8,1528.4,366.1
		C1528.4,366.1,1528.4,366.1,1528.4,366.1z"/>
</g>
<path class="st0" d="M1919.6,560.6c-19.2-5.3-39.5-8.2-60.4-8.2c-45.7,0-88.2,13.7-123.7,37.2c-42.1-114.6-148-198.5-274.6-208.6
	c-77.2-41.7-168.7-65.9-266.8-65.9c-130.9,0-250,43-339.1,113.3c-1.2-1.3-2.5-2.7-3.7-4c-50.6,3.8-97.4,20.9-137.2,47.6
	c39.7-26.8,86.6-43.8,137.2-47.6c-40.9-43.1-98.6-69.9-162.7-69.9c-37.9,0-73.6,9.4-104.9,26c-5.9,3.1-11.6,6.5-17.1,10.1
	c-26-6.8-53.3-10.5-81.5-10.5c-137.9,0-255.5,87.3-300.4,209.6c-35.5-23.5-78-37.2-123.7-37.2c-20.9,0-41.2,2.9-60.4,8.2v283.1
	h708.2c53.6,186.4,250.5,324.7,485.3,324.7c234.9,0,431.9-138.4,485.4-324.9h240.1V560.6z"/>
</svg>
