<?xml version="1.0" encoding="utf-8"?>
<!-- Generator: Adobe Illustrator 19.0.0, SVG Export Plug-In . SVG Version: 6.00 Build 0)  -->
<svg version="1.1" id="Layer_1" xmlns="http://www.w3.org/2000/svg" xmlns:xlink="http://www.w3.org/1999/xlink" x="0px" y="0px"
	 viewBox="0 140.8 1920 201.2" style="enable-background:new 0 140.8 1920 201.2;" xml:space="preserve">
<style type="text/css">
	.st0{fill:#CCCCCC;}
	.st1{fill:#EEEEEE;}
	.st2{fill:#FFFFFF;}
</style>
<g>
	<ellipse class="st0" cx="282.8" cy="85" rx="334.1" ry="210.9"/>
	<ellipse class="st0" cx="813.7" cy="24.7" rx="352.1" ry="248.3"/>
	<ellipse class="st0" cx="1216.4" cy="48.3" rx="385.8" ry="247.5"/>
	<ellipse class="st0" cx="1538.7" cy="23.1" rx="322.3" ry="194.8"/>
	<ellipse class="st0" cx="1783.4" cy="34.6" rx="203.6" ry="206.3"/>
</g>
<g>
	<ellipse class="st1" cx="412.4" cy="98" rx="226.9" ry="210.9"/>
	<ellipse class="st1" cx="773" cy="37.6" rx="239.1" ry="248.3"/>
	<ellipse class="st1" cx="1046.5" cy="61.3" rx="262" ry="247.5"/>
	<ellipse class="st1" cx="1265.4" cy="36.1" rx="218.9" ry="194.8"/>
	<ellipse class="st1" cx="1431.6" cy="47.6" rx="138.3" ry="206.3"/>
</g>
<g id="Layer_1_1_">
</g>
<ellipse class="st2" cx="322.3" cy="111" rx="228.4" ry="165.8"/>
<ellipse class="st2" cx="592.7" cy="91.1" rx="191.8" ry="162.7"/>
<ellipse class="st2" cx="850.9" cy="64.4" rx="161.2" ry="136"/>
<ellipse class="st2" cx="664.6" cy="182.4" rx="119.9" ry="56.9"/>
<ellipse class="st2" cx="1134.4" cy="149.9" rx="198.6" ry="67.2"/>
<ellipse class="st2" cx="1519.4" cy="114" rx="232.2" ry="116.9"/>
<ellipse class="st2" cx="1637.1" cy="59.4" rx="166.5" ry="157.8"/>
<ellipse class="st2" cx="93.8" cy="114" rx="228.4" ry="165.8"/>
<ellipse class="st2" cx="2007.6" cy="47.6" rx="411.8" ry="181.1"/>
</svg>
