<?xml version="1.0" encoding="utf-8"?>
<!-- Generator: Adobe Illustrator 19.0.0, SVG Export Plug-In . SVG Version: 6.00 Build 0)  -->
<svg version="1.1" xmlns="http://www.w3.org/2000/svg" xmlns:xlink="http://www.w3.org/1999/xlink" x="0px" y="0px"
	 viewBox="0 0 800 676.5" style="enable-background:new 0 0 800 676.5;" xml:space="preserve">
<style type="text/css">
	.st0{fill:url(#SVGID_1_);}
	.st1{fill:url(#SVGID_2_);}
	.st2{fill:url(#SVGID_3_);}
	.st3{fill:url(#SVGID_4_);}
	.st4{fill:url(#SVGID_5_);}
	.st5{fill:url(#SVGID_6_);}
	.st6{opacity:0.7;fill:#FFC51F;}
	.st7{fill:#42210B;}
	.st8{fill:#8BC53F;}
	.st9{fill:#E5E5E5;}
	.st10{fill:#F1F1F1;}
	.st11{fill:#CBCBCB;}
	.st12{clip-path:url(#SVGID_8_);fill:#F1D085;}
	.st13{clip-path:url(#SVGID_8_);fill:#D1B062;}
	.st14{fill:#1A1A1A;}
	.st15{opacity:0.5;fill:#B2B2B2;}
	.st16{fill:#4D4D4D;}
	.st17{fill:#C0272D;}
	.st18{fill:#9FD6ED;}
	.st19{opacity:0.3;fill:#F1F1F1;}
	.st20{fill:#A57C52;}
	.st21{fill:#C59B6D;}
	.st22{display:none;}
	.st23{display:inline;fill:#FFFFFF;}
	.st24{opacity:0.4;fill:#8C1500;}
	.st25{fill:#3B1E24;}
	.st26{opacity:0.2;}
	.st27{fill:#0F0709;}
	.st28{fill:#593D44;}
	.st29{fill:#FEC5A8;}
	.st30{fill:#FFFFFF;}
	.st31{fill:#FEA87D;}
	.st32{fill:url(#SVGID_9_);}
	.st33{fill:#FF5C00;}
	.st34{fill:#1C1C1C;stroke:#2D2D2D;stroke-miterlimit:10;}
	.st35{fill:#FFFFFF;stroke:#2D2D2D;stroke-miterlimit:10;}
	.st36{fill:#FFD731;stroke:#FFC51F;stroke-miterlimit:10;}
	.st37{fill:#FFD91D;}
</style>
<g id="Background">
</g>
<g id="Objects">
	<g>
		<g>
			<g>
				<g>
					<linearGradient id="SVGID_1_" gradientUnits="userSpaceOnUse" x1="74.623" y1="589" x2="74.623" y2="588.7148">
						<stop  offset="0" style="stop-color:#FFC51F;stop-opacity:0.75"/>
						<stop  offset="1" style="stop-color:#31393C;stop-opacity:0"/>
					</linearGradient>
					<path class="st0" d="M74.5,588.7l-0.3,0.3H75C74.8,588.9,74.7,588.8,74.5,588.7z"/>
					<linearGradient id="SVGID_2_" gradientUnits="userSpaceOnUse" x1="437.9622" y1="589" x2="437.9622" y2="-1.625358e-08">
						<stop  offset="0" style="stop-color:#FFC51F;stop-opacity:0.75"/>
						<stop  offset="1" style="stop-color:#31393C;stop-opacity:0"/>
					</linearGradient>
					<path class="st1" d="M741,0L75.9,587.5C93.1,578,237.5,499,413,499c187.1,0,338.8,89.5,338.8,89.5s-0.3,0.2-0.8,0.5h0.8L800,45
						V0H741z"/>
				</g>
				<g>
					
						<linearGradient id="SVGID_3_" gradientUnits="userSpaceOnUse" x1="71.6231" y1="589" x2="71.6231" y2="588.7148" gradientTransform="matrix(-1 0 0 1 822 0)">
						<stop  offset="0" style="stop-color:#FFC51F;stop-opacity:0.75"/>
						<stop  offset="1" style="stop-color:#31393C;stop-opacity:0"/>
					</linearGradient>
					<path class="st2" d="M750.5,588.7l0.3,0.3H750C750.2,588.9,750.3,588.8,750.5,588.7z"/>
					
						<linearGradient id="SVGID_4_" gradientUnits="userSpaceOnUse" x1="447.4619" y1="589" x2="447.4619" y2="-1.681565e-08" gradientTransform="matrix(-1 0 0 1 822 0)">
						<stop  offset="0" style="stop-color:#FFC51F;stop-opacity:0.75"/>
						<stop  offset="1" style="stop-color:#31393C;stop-opacity:0"/>
					</linearGradient>
					<path class="st3" d="M84,0l665.1,587.5C731.9,578,587.5,501,412,501c-187.1,0-338.8,87.5-338.8,87.5s0.3,0.2,0.8,0.5h-0.8L0,59
						V0H84z"/>
				</g>
				<g>
					<linearGradient id="SVGID_5_" gradientUnits="userSpaceOnUse" x1="412.7696" y1="586.5439" x2="412.7696" y2="-2.346496e-10">
						<stop  offset="0" style="stop-color:#FFC51F;stop-opacity:0.75"/>
						<stop  offset="1" style="stop-color:#31393C;stop-opacity:0"/>
					</linearGradient>
					<path class="st4" d="M413,500.6c169.4,0,309.7,72.1,334.8,85.7L418,0h-39L77.7,586.5C101.5,573.5,242.5,500.6,413,500.6z"/>
					<linearGradient id="SVGID_6_" gradientUnits="userSpaceOnUse" x1="77.1599" y1="591.374" x2="77.1599" y2="589.5557">
						<stop  offset="0" style="stop-color:#FFC51F;stop-opacity:0.75"/>
						<stop  offset="1" style="stop-color:#31393C;stop-opacity:0"/>
					</linearGradient>
					<path class="st5" d="M76,589.6l-1,1.8l4.3,0C78,590.6,76.9,590,76,589.6z"/>
				</g>
				<path class="st6" d="M751.8,588.5c0,0-151.7,88-338.8,88c-187.1,0-338.8-88-338.8-88s151.7-88,338.8-88
					C600.1,500.6,751.8,588.5,751.8,588.5z"/>
			</g>
			<g>
				<polygon class="st7" points="615.8,231.2 633.4,573.6 598.3,573.6 				"/>
				<g>
					<circle class="st8" cx="636" cy="367.1" r="23.1"/>
					<circle class="st8" cx="566" cy="354.9" r="32.7"/>
					<circle class="st8" cx="596.8" cy="379.9" r="35.7"/>
					<circle class="st8" cx="630.6" cy="308.6" r="41.2"/>
					<circle class="st8" cx="531.6" cy="330.6" r="29.6"/>
					<circle class="st8" cx="630.6" cy="455.9" r="29.6"/>
					<circle class="st8" cx="616.1" cy="477.7" r="16.7"/>
					<circle class="st8" cx="655.1" cy="482.4" r="16.7"/>
					<circle class="st8" cx="660.1" cy="450.3" r="16.7"/>
					<circle class="st8" cx="599.4" cy="450.3" r="16.7"/>
					<circle class="st8" cx="560.4" cy="326" r="28.9"/>
					<circle class="st8" cx="565.7" cy="294.1" r="39.2"/>
					<path class="st8" d="M607,257.4c0,14.5-11.7,26.2-26.2,26.2c-14.4,0-26.2-11.7-26.2-26.2c0-14.4,11.7-26.2,26.2-26.2
						C595.3,231.2,607,242.9,607,257.4z"/>
					<path class="st8" d="M605.8,250.5c0,18.3-14.8,33.1-33.1,33.1c-18.3,0-33.1-14.8-33.1-33.1c0-18.3,14.8-33.1,33.1-33.1
						C591,217.4,605.8,232.2,605.8,250.5z"/>
					<circle class="st8" cx="578.3" cy="210.2" r="17.9"/>
					<circle class="st8" cx="611.4" cy="253" r="30.6"/>
					<circle class="st8" cx="612.8" cy="210.3" r="29.3"/>
					<circle class="st8" cx="601.4" cy="276.5" r="32.1"/>
					<circle class="st8" cx="601.4" cy="326.8" r="40.3"/>
				</g>
				<path class="st8" d="M268.5,339.8c5.6-5.3,9.1-12.8,9.1-21.1c0-16.2-13.1-29.2-29.3-29.2c-10.6,0-19.8,5.6-25,14.1
					c-2.8-1.7-6-2.8-9.5-2.8c-9.9,0-17.9,8-17.9,17.9c0,3.2,0.8,6.2,2.3,8.8c-13.4,4.2-23.1,16.7-23.1,31.5c0,4.4,0.9,8.5,2.4,12.4
					c-9.5,7.2-15.6,18.5-15.6,31.3c0,2.5,0.3,4.9,0.7,7.3c-14.2,2.1-25.2,14.4-25.2,29.2c0,13.6,9.2,25,21.7,28.5
					c-0.1,0.8-0.1,1.7-0.1,2.5c0,10.2,3.8,19.6,9.9,26.8c-0.1,0.9-0.1,1.7-0.1,2.6c0,18,14.6,32.7,32.7,32.7c2.7,0,5.3-0.4,7.7-1
					c2.5,10.1,11.6,17.6,22.4,17.6c12.8,0,23.1-10.4,23.1-23.1c0-3-0.6-5.8-1.6-8.4c8.9-6.5,14.7-17,14.7-28.8
					c0-7.9-2.6-15.1-6.9-21c9.8-7.4,16.1-19,16.1-32.2c0-12.5-5.7-23.7-14.7-31.1c4-5.4,6.4-12,6.4-19.2c0-0.8-0.1-1.5-0.1-2.2
					c5.3-5.5,8.6-13,8.6-21.3C277.5,353,274,345.3,268.5,339.8z"/>
				<g>
					<g>
						<g>
							<polygon class="st9" points="565.8,575.1 565.8,475.6 575.2,463.1 584.6,475.6 584.6,575.1 							"/>
							<polygon class="st9" points="603.4,575.1 603.4,475.6 612.8,463.1 622.2,475.6 622.2,575.1 							"/>
							<polygon class="st9" points="641,575.1 641,475.6 650.3,463.1 659.7,475.6 659.7,575.1 							"/>
						</g>
						<g>
							<rect x="541.6" y="494.5" class="st10" width="142.4" height="18.8"/>
							<rect x="541.6" y="513.3" class="st11" width="142.4" height="2.7"/>
							<rect x="541.6" y="538.1" class="st10" width="142.4" height="18.8"/>
							<rect x="541.6" y="556.8" class="st11" width="142.4" height="2.7"/>
						</g>
					</g>
					<g>
						<g>
							<polygon class="st9" points="140.3,575.1 140.3,475.6 149.7,463.1 159,475.6 159,575.1 							"/>
							<polygon class="st9" points="177.8,575.1 177.8,475.6 187.2,463.1 196.6,475.6 196.6,575.1 							"/>
							<polygon class="st9" points="215.4,575.1 215.4,475.6 224.8,463.1 234.2,475.6 234.2,575.1 							"/>
						</g>
						<g>
							<rect x="116" y="494.5" class="st10" width="142.4" height="18.8"/>
							<rect x="116" y="513.3" class="st11" width="142.4" height="2.7"/>
							<rect x="116" y="538.1" class="st10" width="142.4" height="18.8"/>
							<rect x="116" y="556.8" class="st11" width="142.4" height="2.7"/>
						</g>
					</g>
				</g>
				<g>
					<g>
						<defs>
							<polygon id="SVGID_7_" points="558.5,349.3 400,194.2 241.5,349.3 241.5,560.2 558.5,560.2 							"/>
						</defs>
						<clipPath id="SVGID_8_">
							<use xlink:href="#SVGID_7_"  style="overflow:visible;"/>
						</clipPath>
						<rect x="241.2" y="546.3" class="st12" width="317.6" height="14"/>
						<rect x="241.2" y="542.5" class="st13" width="317.6" height="3.7"/>
						<rect x="241.2" y="528.6" class="st12" width="317.6" height="14"/>
						<rect x="241.2" y="524.8" class="st13" width="317.6" height="3.7"/>
						<rect x="241.2" y="510.9" class="st12" width="317.6" height="14"/>
						<rect x="241.2" y="507.2" class="st13" width="317.6" height="3.7"/>
						<rect x="241.2" y="493.2" class="st12" width="317.6" height="14"/>
						<rect x="241.2" y="489.5" class="st13" width="317.6" height="3.7"/>
						<rect x="241.2" y="475.5" class="st12" width="317.6" height="14"/>
						<rect x="241.2" y="471.8" class="st13" width="317.6" height="3.7"/>
						<rect x="241.2" y="457.8" class="st12" width="317.6" height="14"/>
						<rect x="241.2" y="454.1" class="st13" width="317.6" height="3.7"/>
						<rect x="241.2" y="440.1" class="st12" width="317.6" height="14"/>
						<rect x="241.2" y="436.4" class="st13" width="317.6" height="3.7"/>
						<rect x="241.2" y="422.4" class="st12" width="317.6" height="14"/>
						<rect x="241.2" y="418.7" class="st13" width="317.6" height="3.7"/>
						<rect x="241.2" y="404.7" class="st12" width="317.6" height="14"/>
						<rect x="241.2" y="401" class="st13" width="317.6" height="3.7"/>
						<rect x="241.2" y="387" class="st12" width="317.6" height="14"/>
						<rect x="241.2" y="383.3" class="st13" width="317.6" height="3.7"/>
						<rect x="241.2" y="369.3" class="st12" width="317.6" height="14"/>
						<rect x="241.2" y="365.6" class="st13" width="317.6" height="3.7"/>
						<rect x="241.2" y="351.7" class="st12" width="317.6" height="14"/>
						<rect x="241.2" y="347.9" class="st13" width="317.6" height="3.7"/>
						<rect x="241.2" y="334" class="st12" width="317.6" height="14"/>
						<rect x="241.2" y="330.2" class="st13" width="317.6" height="3.7"/>
						<rect x="241.2" y="316.3" class="st12" width="317.6" height="14"/>
						<rect x="241.2" y="312.6" class="st13" width="317.6" height="3.7"/>
						<rect x="241.2" y="298.6" class="st12" width="317.6" height="14"/>
						<rect x="241.2" y="294.9" class="st13" width="317.6" height="3.7"/>
						<rect x="241.2" y="280.9" class="st12" width="317.6" height="14"/>
						<rect x="241.2" y="277.2" class="st13" width="317.6" height="3.7"/>
						<rect x="241.2" y="263.2" class="st12" width="317.6" height="14"/>
						<rect x="241.2" y="259.5" class="st13" width="317.6" height="3.7"/>
						<rect x="241.2" y="245.5" class="st12" width="317.6" height="14"/>
						<rect x="241.2" y="241.8" class="st13" width="317.6" height="3.7"/>
						<rect x="241.2" y="227.8" class="st12" width="317.6" height="14"/>
						<rect x="241.2" y="224.1" class="st13" width="317.6" height="3.7"/>
						<rect x="241.2" y="210.1" class="st12" width="317.6" height="14"/>
						<rect x="241.2" y="206.4" class="st13" width="317.6" height="3.7"/>
						<rect x="241.2" y="192.4" class="st12" width="317.6" height="14"/>
						<rect x="241.2" y="188.7" class="st13" width="317.6" height="3.7"/>
					</g>
					<rect x="282.9" y="220" class="st14" width="32.4" height="57.1"/>
					<polygon class="st15" points="558.5,367.3 558.5,349.3 400,194.2 241.5,349.3 241.5,367.3 400,211.8 					"/>
					<g>
						<path class="st16" d="M566.7,575.1v-8c0-3.8-3.4-6.9-7.5-6.9H240.9c-4.2,0-7.5,3.1-7.5,6.9v8H566.7z"/>
						<rect x="233.3" y="572.1" class="st14" width="333.3" height="3"/>
					</g>
					<g>
						<g>
							<rect x="366.9" y="392" class="st17" width="66.5" height="168.2"/>
							<polygon class="st16" points="363.1,388.2 363.1,564 370.7,564 370.7,556.5 370.7,556.5 370.7,395.7 429.7,395.7 
								429.7,556.5 429.6,556.5 429.6,564 437.2,564 437.2,388.2 							"/>
						</g>
						<rect x="357.8" y="560.2" class="st14" width="84.7" height="14.9"/>
						<g>
							<path class="st17" d="M422.4,461.7l-22.3,0.3l-22.3,0.2l-0.4,0l0-0.4l-0.1-14l0-14l-0.1-28.1l0-0.6l0.6,0l44.6,0.1l0.5,0
								l0,0.5l-0.2,28.1L422.4,461.7z M422.4,461.7l-0.3-28.1l-0.2-28.1l0.5,0.5l-44.6,0.1l0.6-0.6l-0.1,28.1l0,14l-0.1,14l-0.4-0.4
								l22.3,0.2L422.4,461.7z"/>
						</g>
						<g>
							<path class="st17" d="M422.4,546.3l-22.3,0.3l-22.3,0.2l-0.4,0l0-0.4l-0.1-14l0-14l-0.1-28.1l0-0.6l0.6,0l44.6,0.1l0.5,0
								l0,0.5l-0.2,28.1L422.4,546.3z M422.4,546.3l-0.3-28.1l-0.2-28.1l0.5,0.5l-44.6,0.1l0.6-0.6l-0.1,28.1l0,14l-0.1,14l-0.4-0.4
								l22.3,0.2L422.4,546.3z"/>
						</g>
						<circle class="st14" cx="420.9" cy="478.7" r="3.7"/>
					</g>
					<polygon class="st17" points="400,157.2 204.8,352.4 241,352.4 400,198 559,352.4 595.2,352.4 					"/>
					<path class="st17" d="M323.7,218.7c0,4.2-3.4,7.5-7.5,7.5h-34.1c-4.2,0-7.5-3.4-7.5-7.5v-12.6c0-4.2,3.4-7.5,7.5-7.5h34.1
						c4.2,0,7.5,3.4,7.5,7.5V218.7z"/>
					<g>
						<circle class="st18" cx="400" cy="314.4" r="45.1"/>
						<g>
							<rect x="396.2" y="269.3" class="st16" width="7.5" height="90.3"/>
						</g>
						<g>
							<rect x="354.9" y="310.6" class="st16" width="90.3" height="7.5"/>
						</g>
						<path class="st14" d="M351.1,314.4c0-27,21.9-48.9,48.9-48.9c27,0,48.9,21.9,48.9,48.9c0,27-21.9,48.9-48.9,48.9
							C373,363.3,351.1,341.4,351.1,314.4z M358.6,314.4c0,22.8,18.6,41.4,41.4,41.4c22.8,0,41.4-18.6,41.4-41.4
							c0-22.8-18.6-41.4-41.4-41.4C377.2,273,358.6,291.6,358.6,314.4z"/>
					</g>
					<g>
						<g>
							<g>
								<g>
									<rect x="275.5" y="417" class="st18" width="56.8" height="77.9"/>
									<path class="st16" d="M268,409.5v92.9h71.9v-92.9H268z M332.3,494.9h-56.8V417h56.8V494.9z"/>
								</g>
								<polygon class="st19" points="332.3,419 275.5,462.6 275.5,475.2 332.3,431.6 								"/>
								<polygon class="st19" points="332.3,438.6 275.5,482.3 275.5,494.9 332.3,451.2 								"/>
							</g>
							<rect x="261.2" y="477.7" class="st14" width="85.4" height="24.7"/>
						</g>
						<g>
							<g>
								<g>
									<rect x="467.7" y="417" class="st18" width="56.8" height="77.9"/>
									<path class="st16" d="M460.2,409.5v92.9H532v-92.9H460.2z M524.5,494.9h-56.8V417h56.8V494.9z"/>
								</g>
								<polygon class="st19" points="524.5,419 467.7,462.6 467.7,475.2 524.5,431.6 								"/>
								<polygon class="st19" points="524.5,438.6 467.7,482.3 467.7,494.9 524.5,451.2 								"/>
							</g>
							<rect x="453.4" y="477.7" class="st14" width="85.4" height="24.7"/>
						</g>
					</g>
					<g>
						<polygon class="st20" points="441.7,560.2 469.7,560.2 477.3,546 434.2,546 						"/>
						<path class="st8" d="M439.5,530.3c0-0.3-0.1-0.6-0.1-0.8c0-3.8,3-6.9,7-7.7c1.1-1.3,2.9-2.2,4.9-2.2c2.6,0,4.8,1.5,5.7,3.5
							c1.8-2.1,4.7-3.5,8-3.5c5.5,0,10,4,10,8.9c0,1.1-0.2,2.2-0.7,3.2c2,1,3.4,2.8,3.4,5c0,0.9-0.3,1.7-0.7,2.5h-7h-4.1h-0.4h-7.2
							h-1.2h-0.8h-4.8h-0.1h-6.1h-3.6h-6.7c-0.7-0.9-1.2-2-1.2-3.3C433.7,532.9,436.3,530.5,439.5,530.3z"/>
						<rect x="431.1" y="538.9" class="st21" width="49.3" height="8.5"/>
					</g>
					<g>
						<polygon class="st20" points="330.3,560.2 358.3,560.2 365.8,546 322.7,546 						"/>
						<path class="st8" d="M328.1,530.3c0-0.3-0.1-0.6-0.1-0.8c0-3.8,3-6.9,7-7.7c1.1-1.3,2.9-2.2,4.9-2.2c2.6,0,4.8,1.5,5.7,3.5
							c1.8-2.1,4.7-3.5,8-3.5c5.5,0,10,4,10,8.9c0,1.1-0.3,2.2-0.7,3.2c2,1,3.4,2.8,3.4,5c0,0.9-0.3,1.7-0.7,2.5h-7h-4.1h-0.4h-7.2
							h-1.2h-0.8H340h-0.1h-6.1h-3.6h-6.7c-0.7-0.9-1.2-2-1.2-3.3C322.3,532.9,324.8,530.5,328.1,530.3z"/>
						<rect x="319.6" y="538.9" class="st21" width="49.3" height="8.5"/>
					</g>
				</g>
			</g>
			<g>
				<g class="st22">
					<polygon class="st23" points="647,454 288,496 288,410 647,387 629,419 					"/>
				</g>
				<g>
					<path class="st24" d="M277.7,571.6c0,8.7-31.9,18.7-71.3,18.7c-39.4,0-71.3-10-71.3-18.7c0-8.7,31.9-15.7,71.3-15.7
						C245.7,555.8,277.7,562.9,277.7,571.6z"/>
					<path class="st25" d="M257.8,452h-51h-51c0,0-4.8,82.6-18.2,118.1c0,0,22.3,16.2,69.1,16.2c46.9,0,69.1-16.2,69.1-16.2
						C262.6,534.6,257.8,452,257.8,452z"/>
					<g class="st26">
						<path class="st27" d="M166.9,575.2c0-0.2,0-0.5,0-0.7c0.6-14.1,1.5-28.2,2.7-42.3c1.2-14.8,2.2-29.6,3.1-44.4
							c0.8-11.8,1.5-23.7,3.4-35.4h-20.2c0,0-4.8,82.5-18.2,117.9c0,0,9.2,6.6,28.3,11.4c0.1-0.9,0.3-1.9,0.4-2.8
							C166.5,577.6,166.7,576.4,166.9,575.2z"/>
						<path class="st27" d="M251.4,482.3c0.1,15.3,1.4,30.6,3.2,45.9c1.8,14.7,4.2,29.3,8.2,43.6c0.4,1.5,0.9,3.1,1.3,4.6
							c7.9-3.3,11.8-6,11.8-6c-13.4-35.5-18.2-117.9-18.2-117.9h-6.3C251.7,462.3,251.4,472.2,251.4,482.3z"/>
					</g>
					<path class="st27" d="M208.5,482.1c19.1,0,36.9-1.8,51.3-4.5c-1.4-15-2-25.6-2-25.6h-51h-51c0,0-0.6,10.3-1.9,24.9
						C169,480.1,187.9,482.1,208.5,482.1z"/>
					<ellipse class="st28" cx="208.5" cy="452" rx="88" ry="23.2"/>
					<path class="st27" d="M171.2,452.8c8.8,2.3,22.2,3.7,37.3,3.7c15.1,0,28.5-1.5,37.3-3.7c-8.8-2.3-22.2-3.7-37.3-3.7
						C193.4,449.1,180,450.5,171.2,452.8z"/>
					<ellipse class="st25" cx="208.5" cy="446.4" rx="48.1" ry="10.1"/>
					<g>
						<path class="st29" d="M176,400c-0.3-1.4-0.6-2.9-0.9-4.3C175.3,397.1,175.7,398.5,176,400z"/>
						<path class="st29" d="M178.9,411.4c-1.1-3.8-2.1-7.6-2.9-11.3C176.9,403.8,177.8,407.6,178.9,411.4z"/>
						<path class="st29" d="M175,395.5c-0.3-1.4-0.5-2.8-0.8-4.1C174.5,392.7,174.7,394.1,175,395.5z"/>
						<path class="st29" d="M181.1,363.2c0.1,0.1,0.2,0.1,0.2,0.2C181.2,363.3,181.2,363.2,181.1,363.2z"/>
						<path class="st29" d="M180.3,362.8c0.1,0,0.1,0,0.2,0.1C180.4,362.8,180.3,362.8,180.3,362.8z"/>
						<path class="st29" d="M180.7,362.9c0.1,0,0.1,0.1,0.2,0.1C180.8,363,180.8,363,180.7,362.9z"/>
						<path class="st29" d="M173.6,386.9c-0.1-0.6-0.1-1.2-0.2-1.7C173.4,385.7,173.5,386.3,173.6,386.9z"/>
						<path class="st29" d="M173.4,385c-0.1-0.6-0.1-1.2-0.2-1.8C173.2,383.8,173.3,384.4,173.4,385z"/>
						<path class="st29" d="M172.9,379.2c0-0.5,0-0.9,0-1.4C172.9,378.2,172.9,378.7,172.9,379.2z"/>
						<path class="st29" d="M179.8,362.7c0.1,0,0.1,0,0.2,0C179.9,362.7,179.9,362.7,179.8,362.7z"/>
						<path class="st29" d="M173,381.1c0-0.6-0.1-1.1-0.1-1.7C172.9,379.9,173,380.5,173,381.1z"/>
						<path class="st29" d="M173.1,382.9c0-0.5-0.1-1-0.1-1.5C173.1,381.9,173.1,382.4,173.1,382.9z"/>
						<path class="st29" d="M176.1,364.6c0.2-0.2,0.3-0.3,0.5-0.5C176.4,364.3,176.3,364.5,176.1,364.6z"/>
						<path class="st29" d="M173.3,371.1c0.1-0.4,0.1-0.7,0.2-1.1C173.5,370.4,173.4,370.7,173.3,371.1z"/>
						<path class="st29" d="M178.5,363c0.3-0.1,0.6-0.2,0.9-0.3C179.1,362.8,178.8,362.9,178.5,363z"/>
						<path class="st29" d="M173.6,369.9c0.1-0.4,0.2-0.8,0.3-1.1C173.8,369.1,173.7,369.5,173.6,369.9z"/>
						<path class="st29" d="M172.9,375.8c0-0.5,0-0.9,0.1-1.3C172.9,374.9,172.9,375.3,172.9,375.8z"/>
						<path class="st29" d="M172.9,377.4c0-0.5,0-1,0-1.5C172.9,376.4,172.9,376.9,172.9,377.4z"/>
						<path class="st29" d="M174,368.5c0.1-0.3,0.2-0.6,0.3-0.9C174.2,367.9,174.1,368.2,174,368.5z"/>
						<path class="st29" d="M173,374.1c0.1-0.9,0.2-1.8,0.3-2.7C173.2,372.3,173.1,373.1,173,374.1z"/>
						<path class="st29" d="M182.4,364.7c-1.2,0.3-2.3,0.9-3.2,1.6c-2.2,1.8-3.1,5-3.5,7.7c-1.5,8.6,0.2,17.9,1.6,26.4
							c0.9,5.2,1.9,10.4,3,15.5c-0.5-1.5-0.9-3-1.3-4.5c3,10.7,6.8,21.2,10.3,29.2c0,0,0.6-69.1-7.8-77.1
							C181.8,363.8,182.1,364.2,182.4,364.7z"/>
						<path class="st29" d="M176.8,364c0.2-0.2,0.5-0.3,0.7-0.5C177.3,363.6,177,363.8,176.8,364z"/>
						<path class="st29" d="M177.6,363.4c0.2-0.1,0.5-0.2,0.7-0.3C178.1,363.2,177.8,363.3,177.6,363.4z"/>
						<path class="st29" d="M174.4,367.4c0.1-0.3,0.3-0.6,0.4-0.9C174.6,366.8,174.5,367.1,174.4,367.4z"/>
						<path class="st29" d="M174.9,366.3c0.1-0.2,0.3-0.5,0.4-0.7C175.2,365.9,175,366.1,174.9,366.3z"/>
						<path class="st29" d="M175.4,365.5c0.2-0.3,0.4-0.5,0.6-0.7C175.8,365,175.6,365.2,175.4,365.5z"/>
						<path class="st29" d="M174.2,391.1c-0.2-1.3-0.4-2.6-0.6-3.9C173.8,388.5,174,389.8,174.2,391.1z"/>
						<path class="st30" d="M243.4,343.8c-22.2-10-24.1,60.1-24.2,91.6c-3.2-0.7-6.8-1-10.8-1c-3.7,0-7.1,0.4-10.2,1
							c-0.1-31.4-2-101.6-24.2-91.6c-29.7,13.4-2.5,79.1,6.7,101.2c-2.3,2.8-3.8,5.8-4.3,8.9c0.1,0,9.9,2.6,29.1,3.6
							c13.4,0.7,29.2-1.2,36.2-3.7c-1.1-3.2-2.8-6.2-5-8.8C245.9,423,273.1,357.2,243.4,343.8z M172.9,375.9c0,0,0-0.1,0-0.1
							c0-0.5,0-0.9,0.1-1.3c0-0.1,0-0.2,0-0.3c0.1-0.9,0.2-1.8,0.3-2.7c0-0.1,0-0.2,0.1-0.3c0.1-0.4,0.1-0.7,0.2-1.1
							c0,0,0-0.1,0-0.1c0.1-0.4,0.2-0.8,0.3-1.1c0-0.1,0.1-0.2,0.1-0.3c0.1-0.3,0.2-0.6,0.3-0.9c0-0.1,0-0.1,0.1-0.2
							c0.1-0.3,0.3-0.6,0.4-0.9c0-0.1,0.1-0.1,0.1-0.2c0.1-0.2,0.3-0.5,0.4-0.7c0-0.1,0.1-0.1,0.1-0.2c0.2-0.3,0.4-0.5,0.6-0.7
							c0,0,0.1-0.1,0.1-0.1c0.2-0.2,0.3-0.3,0.5-0.5c0.1,0,0.1-0.1,0.2-0.1c0.2-0.2,0.5-0.3,0.7-0.5c0,0,0.1,0,0.1-0.1
							c0.2-0.1,0.5-0.2,0.7-0.3c0.1,0,0.1-0.1,0.2-0.1c0.3-0.1,0.6-0.2,0.9-0.3c0.2,0,0.3,0,0.5,0c0.1,0,0.1,0,0.2,0
							c0.1,0,0.2,0,0.3,0c0.1,0,0.1,0,0.2,0.1c0.1,0,0.2,0.1,0.2,0.1c0.1,0,0.1,0.1,0.2,0.1c0.1,0,0.1,0.1,0.2,0.1
							c0.1,0.1,0.1,0.1,0.2,0.2c0,0,0.1,0.1,0.1,0.1c8.4,8,7.8,77.1,7.8,77.1c-3.5-8-7.3-18.5-10.3-29.2c0,0,0,0,0,0
							c-1.1-3.8-2.1-7.6-2.9-11.3c0,0,0-0.1,0-0.1c-0.3-1.4-0.6-2.9-0.9-4.3c0-0.1,0-0.1,0-0.2c-0.3-1.4-0.5-2.8-0.8-4.1
							c0-0.1,0-0.2,0-0.3c-0.2-1.3-0.4-2.6-0.6-3.9c0-0.1,0-0.2,0-0.3c-0.1-0.6-0.1-1.2-0.2-1.7c0-0.1,0-0.1,0-0.2
							c-0.1-0.6-0.1-1.2-0.2-1.8c0-0.1,0-0.2,0-0.3c0-0.5-0.1-1-0.1-1.5c0-0.1,0-0.2,0-0.3c0-0.6-0.1-1.1-0.1-1.7c0-0.1,0-0.1,0-0.2
							c0-0.5,0-0.9,0-1.4c0-0.1,0-0.2,0-0.3C172.9,376.9,172.9,376.4,172.9,375.9z M229,430.8C229,430.8,229,430.8,229,430.8
							c0-0.4-0.4-0.8-0.4-1.3c0-0.1-0.2-0.1-0.2-0.2c0-0.4-0.1-0.7-0.1-1.1c0-0.1,0-0.2,0-0.3c0-0.4,0-0.8,0-1.3c0,0,0.3,0,0.3-0.1
							c0-0.5,0.4-1,0.4-1.4c0,0,0-0.1,0-0.1c0-0.4-0.3-0.9-0.3-1.3c0-0.1-0.2-0.2-0.2-0.3c0-0.4-0.1-0.8-0.1-1.2c0-0.1,0-0.2,0-0.3
							c0-1,0-2,0.1-3.1c0-0.1,0-0.3,0-0.4c0-0.4,0-0.8,0-1.2c0-0.1,0-0.3,0-0.4c0-0.4,0-0.9,0-1.3c0-0.1,0-0.2,0-0.3
							c0-0.5,0-1.1,0.1-1.6c0-0.1,0-0.1,0-0.2c0-0.5,0-1,0.1-1.4c0-0.2,0-0.3,0-0.5c0-0.4,0-0.8,0-1.2c0-0.2,0-0.3,0-0.5
							c0-0.5,0-1,0.1-1.5c0-0.1,0-0.1,0-0.2c0-0.6,0-1.1,0.1-1.7c0-0.1,0-0.3,0-0.4c0-0.4,0-0.9,0.1-1.3c0-0.2,0-0.4,0-0.5
							c0-0.4,0-0.8,0.1-1.2c0-0.2,0-0.3,0-0.5c0-0.6,0.1-1.1,0.1-1.7c0-0.1,0-0.1,0-0.2c0-0.5,0.1-1,0.1-1.5c0-0.2,0-0.4,0-0.5
							c0-0.4,0.1-0.8,0.1-1.2c0-0.2,0-0.4,0-0.6c0-0.4,0.1-0.9,0.1-1.3c0-0.1,0-0.2,0-0.4c0-0.6,0.1-1.1,0.1-1.7c0-0.1,0-0.3,0-0.4
							c0-0.4,0.1-0.8,0.1-1.2c0-0.2,0-0.4,0-0.6c0-0.4,0.1-0.8,0.1-1.1c0-0.2,0-0.3,0-0.5c0-0.5,0.1-1.1,0.1-1.6c0,0,0-0.1,0-0.1
							c0-0.5,0.1-1,0.1-1.5c0-0.2,0-0.3,0.1-0.5c0-0.4,0.1-0.7,0.1-1.1c0-0.2,0-0.4,0.1-0.5c0-0.4,0.1-0.8,0.1-1.1
							c0-0.1,0-0.3,0-0.4c0.1-0.5,0.1-1,0.2-1.5c0-0.1,0-0.2,0-0.3c0-0.4,0.1-0.7,0.2-1.1c0-0.2,0-0.3,0.1-0.5c0-0.3,0.1-0.7,0.1-1
							c0-0.1,0-0.3,0.1-0.4c0.1-0.4,0.1-0.8,0.2-1.2c0,0,0-0.1,0-0.1c0.1-0.4,0.1-0.9,0.2-1.3c0-0.1,0-0.3,0.1-0.4
							c0.1-0.3,0.1-0.6,0.2-0.9c0-0.1,0.1-0.3,0.1-0.4c0.1-0.3,0.1-0.6,0.2-0.9c0-0.1,0-0.2,0.1-0.3c0.1-0.4,0.2-0.8,0.3-1.1
							c0-0.1,0-0.1,0-0.2c0.1-0.3,0.1-0.6,0.2-0.9c0-0.1,0.1-0.2,0.1-0.3c0.1-0.2,0.1-0.5,0.2-0.7c0-0.1,0.1-0.2,0.1-0.3
							c0.1-0.3,0.2-0.5,0.2-0.8c0-0.1,0-0.1,0.1-0.2c0.1-0.3,0.2-0.6,0.3-0.9c0-0.1,0.1-0.2,0.1-0.2c0.1-0.2,0.2-0.4,0.2-0.6
							c0-0.1,0.1-0.2,0.1-0.3c0.1-0.2,0.2-0.3,0.2-0.5c0-0.1,0.1-0.1,0.1-0.2c0.1-0.2,0.2-0.4,0.3-0.6c0,0,0,0,0-0.1
							c0.1-0.2,0.2-0.3,0.3-0.5c0-0.1,0.1-0.1,0.1-0.2c0.1-0.1,0.2-0.2,0.3-0.3c0,0,0.1-0.1,0.1-0.1c0.1-0.1,0.2-0.2,0.3-0.3
							c0,0,0.1-0.1,0.1-0.1c0.1-0.1,0.3-0.2,0.4-0.3c0,0,0.1,0,0.1,0c0.1-0.1,0.2-0.1,0.3-0.1c0,0,0.1,0,0.1,0c0.1,0,0.2,0,0.3,0
							c0,0,0.1,0,0.1,0c0.1,0,0.3,0,0.4,0c0.2,0,0.4,0.1,0.6,0.2c0.1,0,0.1,0.1,0.2,0.1c0.1,0,0.3,0.1,0.4,0.2
							c0.1,0,0.2,0.1,0.2,0.1c0.1,0.1,0.2,0.1,0.3,0.2c0.1,0,0.2,0.1,0.2,0.1c0.1,0.1,0.2,0.1,0.3,0.2c0.1,0.1,0.2,0.1,0.2,0.2
							c0.1,0.1,0.2,0.1,0.2,0.2c0.1,0.1,0.2,0.1,0.2,0.2c0.1,0.1,0.2,0.2,0.2,0.2c0.1,0.1,0.1,0.2,0.2,0.2c0.1,0.2,0.3,0.3,0.4,0.5
							l0,0c8,11-3.5,52.8-13.4,75.3C228.6,440.6,229,436.8,229,430.8z"/>
						<path class="st29" d="M239.3,363.2c0.1,0,0.2,0.1,0.2,0.1C239.5,363.2,239.4,363.2,239.3,363.2z"/>
						<path class="st29" d="M236.2,363.3C236.2,363.3,236.2,363.3,236.2,363.3C236.2,363.3,236.2,363.3,236.2,363.3z"/>
						<path class="st29" d="M229.3,399.2c0-0.2,0-0.4,0-0.5C229.3,398.8,229.3,399,229.3,399.2z"/>
						<path class="st29" d="M238.7,362.9c0.1,0,0.1,0.1,0.2,0.1C238.9,363,238.8,363,238.7,362.9z"/>
						<path class="st29" d="M239.9,363.4c0.1,0,0.2,0.1,0.2,0.1C240,363.5,240,363.5,239.9,363.4z"/>
						<path class="st29" d="M229.5,395.6c0-0.1,0-0.2,0-0.4C229.5,395.4,229.5,395.5,229.5,395.6z"/>
						<path class="st29" d="M229.7,393.6c0-0.1,0-0.3,0-0.4C229.7,393.3,229.7,393.4,229.7,393.6z"/>
						<path class="st29" d="M229.1,403c0-0.2,0-0.3,0-0.5C229.1,402.7,229.1,402.9,229.1,403z"/>
						<path class="st29" d="M236.7,363c0,0,0.1,0,0.1,0C236.7,363,236.7,363,236.7,363z"/>
						<path class="st29" d="M229,404.8c0-0.2,0-0.4,0-0.5C229,404.4,229,404.6,229,404.8z"/>
						<path class="st29" d="M229.2,400.9c0-0.1,0-0.1,0-0.2C229.2,400.7,229.2,400.8,229.2,400.9z"/>
						<path class="st29" d="M237.1,362.8c0,0,0.1,0,0.1,0C237.2,362.8,237.1,362.8,237.1,362.8z"/>
						<path class="st29" d="M237.5,362.7c0,0,0.1,0,0.1,0C237.6,362.7,237.6,362.7,237.5,362.7z"/>
						<path class="st29" d="M229.4,397.5c0-0.2,0-0.4,0-0.6C229.4,397.1,229.4,397.3,229.4,397.5z"/>
						<path class="st29" d="M230.7,383.3c0-0.1,0-0.3,0-0.4C230.7,383.1,230.7,383.2,230.7,383.3z"/>
						<path class="st29" d="M231.6,376.9c0,0,0-0.1,0-0.1C231.6,376.8,231.6,376.9,231.6,376.9z"/>
						<path class="st29" d="M230.5,385c0-0.2,0-0.4,0.1-0.5C230.5,384.6,230.5,384.8,230.5,385z"/>
						<path class="st29" d="M230.9,381.5c0-0.1,0-0.2,0-0.3C230.9,381.3,230.9,381.4,230.9,381.5z"/>
						<path class="st29" d="M231.1,380c0-0.2,0-0.3,0.1-0.5C231.1,379.7,231.1,379.9,231.1,380z"/>
						<path class="st29" d="M240.4,363.8c0.1,0.1,0.2,0.1,0.2,0.2C240.6,363.9,240.5,363.8,240.4,363.8z"/>
						<path class="st29" d="M230.3,386.6c0-0.2,0-0.3,0.1-0.5C230.3,386.2,230.3,386.4,230.3,386.6z"/>
						<path class="st29" d="M240.9,364.2c0.1,0.1,0.2,0.1,0.2,0.2C241,364.3,241,364.2,240.9,364.2z"/>
						<path class="st29" d="M230.1,388.2c0,0,0-0.1,0-0.1C230.1,388.1,230.1,388.1,230.1,388.2z"/>
						<path class="st29" d="M229.8,391.9c0-0.2,0-0.4,0-0.6C229.8,391.6,229.8,391.8,229.8,391.9z"/>
						<path class="st29" d="M241.3,364.6c0.1,0.1,0.1,0.2,0.2,0.2C241.5,364.8,241.4,364.7,241.3,364.6z"/>
						<path class="st29" d="M229.9,390.2c0-0.2,0-0.3,0-0.5C230,389.9,230,390.1,229.9,390.2z"/>
						<path class="st29" d="M232,374.2c0-0.1,0.1-0.3,0.1-0.4C232.1,373.9,232.1,374.1,232,374.2z"/>
						<path class="st29" d="M228.3,423.8c0-0.1,0-0.2,0-0.3C228.3,423.6,228.3,423.7,228.3,423.8z"/>
						<path class="st29" d="M228.5,417.3c0-0.1,0-0.3,0-0.4C228.5,417.1,228.5,417.2,228.5,417.3z"/>
						<path class="st29" d="M232.6,371.4c0-0.1,0-0.1,0-0.2C232.7,371.3,232.6,371.4,232.6,371.4z"/>
						<path class="st29" d="M228.4,422.3c0-0.1,0-0.2,0-0.3C228.4,422.1,228.4,422.2,228.4,422.3z"/>
						<path class="st29" d="M233.2,369.3c0-0.1,0.1-0.2,0.1-0.3C233.3,369.1,233.2,369.2,233.2,369.3z"/>
						<path class="st29" d="M228.4,418.9c0-0.1,0-0.3,0-0.4C228.4,418.7,228.4,418.8,228.4,418.9z"/>
						<path class="st29" d="M232.9,370.4c0-0.1,0.1-0.2,0.1-0.3C233,370.1,232.9,370.2,232.9,370.4z"/>
						<path class="st29" d="M228.3,428.3c0-0.1,0-0.2,0-0.3C228.3,428.1,228.3,428.2,228.3,428.3z"/>
						<path class="st29" d="M229,426.7C229,426.7,229,426.7,229,426.7C229,426.7,229,426.7,229,426.7z"/>
						<path class="st29" d="M228.2,429.5c0-0.1,0-0.1,0-0.2C228.2,429.4,228.2,429.5,228.2,429.5z"/>
						<path class="st29" d="M231.3,378.6c0-0.1,0-0.3,0.1-0.4C231.3,378.3,231.3,378.4,231.3,378.6z"/>
						<path class="st29" d="M228.3,425.2c0,0,0-0.1,0-0.1C228.3,425.2,228.3,425.2,228.3,425.2z"/>
						<path class="st29" d="M232.3,372.9c0-0.1,0-0.2,0.1-0.3C232.3,372.7,232.3,372.8,232.3,372.9z"/>
						<path class="st29" d="M235,364.8C235,364.8,235,364.7,235,364.8C235,364.7,235,364.8,235,364.8z"/>
						<path class="st29" d="M228.7,410.3c0-0.2,0-0.3,0-0.5C228.7,410,228.7,410.2,228.7,410.3z"/>
						<path class="st29" d="M235.4,364.2c0-0.1,0.1-0.1,0.1-0.2C235.4,364.1,235.4,364.2,235.4,364.2z"/>
						<path class="st29" d="M228.7,412c0-0.2,0-0.3,0-0.5C228.7,411.7,228.7,411.9,228.7,412z"/>
						<path class="st29" d="M228.9,406.5c0-0.1,0-0.3,0-0.4C228.9,406.2,228.9,406.4,228.9,406.5z"/>
						<path class="st29" d="M228.8,408.4c0-0.1,0-0.1,0-0.2C228.8,408.2,228.8,408.3,228.8,408.4z"/>
						<path class="st29" d="M235.7,363.8c0,0,0.1-0.1,0.1-0.1C235.8,363.7,235.8,363.7,235.7,363.8z"/>
						<path class="st29" d="M233.5,368.2c0-0.1,0-0.1,0.1-0.2C233.6,368.1,233.5,368.2,233.5,368.2z"/>
						<path class="st29" d="M233.9,367.2c0-0.1,0.1-0.2,0.1-0.2C233.9,367,233.9,367.1,233.9,367.2z"/>
						<path class="st29" d="M231.8,375.5c0-0.1,0-0.3,0.1-0.4C231.8,375.2,231.8,375.3,231.8,375.5z"/>
						<path class="st29" d="M228.5,415.6c0-0.1,0-0.2,0-0.3C228.5,415.4,228.5,415.5,228.5,415.6z"/>
						<path class="st29" d="M228.6,413.7c0-0.1,0-0.1,0-0.2C228.6,413.5,228.6,413.6,228.6,413.7z"/>
						<path class="st29" d="M234.2,366.4c0-0.1,0.1-0.2,0.1-0.3C234.3,366.2,234.2,366.3,234.2,366.4z"/>
						<path class="st29" d="M234.6,365.6c0-0.1,0.1-0.1,0.1-0.2C234.6,365.5,234.6,365.5,234.6,365.6z"/>
						<path class="st29" d="M241.9,365.3c-2.3,0.7-4.3,3.9-5.1,5.9c-2.2,5.7-3.1,11.8-4,17.8c-1.1,7.9-2.4,15.7-3.2,23.6
							c-0.6,6-1,12.1-1.5,18.2c-0.1,6,0,9.8,0,9.8C238.1,418.1,250,376.3,241.9,365.3z"/>
						<path class="st31" d="M172.9,377.8c0,0.5,0,0.9,0,1.4c0,0.1,0,0.1,0,0.2c0,0.6,0.1,1.1,0.1,1.7c0,0.1,0,0.2,0,0.3
							c0,0.5,0.1,1,0.1,1.5c0,0.1,0,0.2,0,0.3c0.1,0.6,0.1,1.2,0.2,1.8c0,0.1,0,0.1,0,0.2c0.1,0.6,0.1,1.1,0.2,1.7
							c0,0.1,0,0.2,0,0.3c0.2,1.3,0.4,2.6,0.6,3.9c0,0.1,0,0.2,0,0.3c0.2,1.3,0.5,2.7,0.8,4.1c0,0.1,0,0.1,0,0.2
							c0.3,1.4,0.6,2.8,0.9,4.3c0,0,0,0.1,0,0.1c0.8,3.7,1.8,7.5,2.9,11.3c0,0,0,0,0,0c0.4,1.5,0.9,3,1.3,4.5
							c-1.1-5.2-2.2-10.3-3-15.5c-1.4-8.5-3.1-17.8-1.6-26.4c0.5-2.7,1.3-5.9,3.5-7.7c0.9-0.7,2-1.4,3.2-1.6
							c-0.3-0.5-0.6-0.9-0.9-1.2c0,0-0.1-0.1-0.1-0.1c-0.1-0.1-0.1-0.1-0.2-0.2c-0.1,0-0.1-0.1-0.2-0.1c-0.1,0-0.1-0.1-0.2-0.1
							c-0.1,0-0.2-0.1-0.2-0.1c-0.1,0-0.1,0-0.2-0.1c-0.1,0-0.2,0-0.3,0c-0.1,0-0.1,0-0.2,0c-0.1,0-0.3,0-0.5,0
							c-0.3,0.1-0.6,0.2-0.9,0.3c-0.1,0-0.1,0.1-0.2,0.1c-0.2,0.1-0.5,0.2-0.7,0.3c0,0-0.1,0-0.1,0.1c-0.2,0.1-0.5,0.3-0.7,0.5
							c-0.1,0-0.1,0.1-0.2,0.1c-0.2,0.2-0.4,0.3-0.5,0.5c0,0-0.1,0.1-0.1,0.1c-0.2,0.2-0.4,0.5-0.6,0.7c0,0.1-0.1,0.1-0.1,0.2
							c-0.1,0.2-0.3,0.4-0.4,0.7c0,0.1-0.1,0.1-0.1,0.2c-0.2,0.3-0.3,0.6-0.4,0.9c0,0.1,0,0.1-0.1,0.2c-0.1,0.3-0.2,0.6-0.3,0.9
							c0,0.1-0.1,0.2-0.1,0.3c-0.1,0.4-0.2,0.7-0.3,1.1c0,0,0,0.1,0,0.1c-0.1,0.4-0.2,0.7-0.2,1.1c0,0.1,0,0.2-0.1,0.3
							c-0.1,0.8-0.2,1.7-0.3,2.7c0,0.1,0,0.2,0,0.3c0,0.4-0.1,0.9-0.1,1.3c0,0,0,0.1,0,0.1c0,0.5,0,1,0,1.5
							C172.9,377.5,172.9,377.6,172.9,377.8z"/>
						<path class="st31" d="M232.9,389.1c0.9-6,1.8-12.1,4-17.8c0.8-2,2.8-5.2,5.1-5.9l0,0c-0.1-0.2-0.2-0.3-0.4-0.5
							c-0.1-0.1-0.1-0.2-0.2-0.2c-0.1-0.1-0.1-0.2-0.2-0.2c-0.1-0.1-0.2-0.1-0.2-0.2c-0.1-0.1-0.2-0.1-0.2-0.2
							c-0.1-0.1-0.2-0.1-0.2-0.2c-0.1-0.1-0.2-0.1-0.3-0.2c-0.1-0.1-0.2-0.1-0.2-0.1c-0.1-0.1-0.2-0.1-0.3-0.2
							c-0.1,0-0.2-0.1-0.2-0.1c-0.1-0.1-0.3-0.1-0.4-0.2c-0.1,0-0.1-0.1-0.2-0.1c-0.2-0.1-0.4-0.1-0.6-0.2c-0.2,0-0.3,0-0.4,0
							c0,0-0.1,0-0.1,0c-0.1,0-0.2,0-0.3,0c0,0-0.1,0-0.1,0c-0.1,0-0.2,0.1-0.3,0.1c0,0-0.1,0-0.1,0c-0.1,0.1-0.3,0.2-0.4,0.3
							c0,0-0.1,0.1-0.1,0.1c-0.1,0.1-0.2,0.2-0.3,0.3c0,0-0.1,0.1-0.1,0.1c-0.1,0.1-0.2,0.2-0.3,0.3c0,0.1-0.1,0.1-0.1,0.2
							c-0.1,0.2-0.2,0.3-0.3,0.5c0,0,0,0,0,0.1c-0.1,0.2-0.2,0.4-0.3,0.6c0,0.1-0.1,0.1-0.1,0.2c-0.1,0.2-0.2,0.3-0.2,0.5
							c0,0.1-0.1,0.2-0.1,0.3c-0.1,0.2-0.2,0.4-0.2,0.6c0,0.1-0.1,0.2-0.1,0.2c-0.1,0.3-0.2,0.6-0.3,0.9c0,0.1,0,0.1-0.1,0.2
							c-0.1,0.3-0.2,0.5-0.2,0.8c0,0.1-0.1,0.2-0.1,0.3c-0.1,0.2-0.1,0.5-0.2,0.7c0,0.1-0.1,0.2-0.1,0.3c-0.1,0.3-0.1,0.6-0.2,0.9
							c0,0.1,0,0.1,0,0.2c-0.1,0.4-0.2,0.7-0.3,1.1c0,0.1,0,0.2-0.1,0.3c-0.1,0.3-0.1,0.6-0.2,0.9c0,0.1-0.1,0.3-0.1,0.4
							c-0.1,0.3-0.1,0.6-0.2,0.9c0,0.1,0,0.3-0.1,0.4c-0.1,0.4-0.2,0.9-0.2,1.3c0,0,0,0.1,0,0.1c-0.1,0.4-0.1,0.8-0.2,1.2
							c0,0.1,0,0.3-0.1,0.4c0,0.3-0.1,0.6-0.1,1c0,0.2,0,0.3-0.1,0.5c-0.1,0.4-0.1,0.7-0.2,1.1c0,0.1,0,0.2,0,0.3
							c-0.1,0.5-0.1,1-0.2,1.5c0,0.1,0,0.3,0,0.4c0,0.4-0.1,0.7-0.1,1.1c0,0.2,0,0.4-0.1,0.5c0,0.4-0.1,0.7-0.1,1.1
							c0,0.2,0,0.3-0.1,0.5c-0.1,0.5-0.1,1-0.1,1.5c0,0,0,0.1,0,0.1c-0.1,0.5-0.1,1-0.1,1.6c0,0.2,0,0.3,0,0.5
							c0,0.4-0.1,0.8-0.1,1.1c0,0.2,0,0.4,0,0.6c0,0.4-0.1,0.8-0.1,1.2c0,0.1,0,0.3,0,0.4c0,0.5-0.1,1.1-0.1,1.7c0,0.1,0,0.2,0,0.4
							c0,0.4-0.1,0.9-0.1,1.3c0,0.2,0,0.4,0,0.6c0,0.4-0.1,0.8-0.1,1.2c0,0.2,0,0.4,0,0.5c0,0.5-0.1,1-0.1,1.5c0,0.1,0,0.1,0,0.2
							c0,0.6-0.1,1.1-0.1,1.7c0,0.2,0,0.3,0,0.5c0,0.4,0,0.8-0.1,1.2c0,0.2,0,0.4,0,0.5c0,0.4,0,0.9-0.1,1.3c0,0.1,0,0.3,0,0.4
							c0,0.6-0.1,1.1-0.1,1.7c0,0.1,0,0.1,0,0.2c0,0.5,0,1-0.1,1.5c0,0.2,0,0.3,0,0.5c0,0.4,0,0.8,0,1.2c0,0.2,0,0.3,0,0.5
							c0,0.5,0,1-0.1,1.4c0,0.1,0,0.1,0,0.2c0,0.6,0,1.1-0.1,1.6c0,0.1,0,0.2,0,0.3c0,0.4,0,0.9,0,1.3c0,0.1,0,0.3,0,0.4
							c0,0.4,0,0.8,0,1.2c0,0.1,0,0.3,0,0.4c0,1-0.1,2.1-0.1,3.1c0,0.1,0,0.2,0,0.3c0,0.4,0,0.8,0,1.2c0,0.1,0,0.2,0,0.3
							c0,0.4,0,0.9,0,1.3c0,0,0.4,0.1,0.4,0.1c0,0.5,0.3,1,0.3,1.4c0,0,0,0,0,0.1c0,0.4-0.4,0.9-0.4,1.3c0,0.1-0.2,0.2-0.2,0.3
							c0,0.4-0.1,0.8-0.1,1.1c0,0.1,0.3,0.1,0.3,0.2c0,0.4,0.3,0.9,0.3,1.3c0,0,0,0,0,0c0-6.1,0.5-12.1,1.1-18.2
							C230.9,404.7,231.8,396.9,232.9,389.1z"/>
					</g>
					<g>
						<radialGradient id="SVGID_9_" cx="206.8513" cy="501.7668" r="40.299" gradientUnits="userSpaceOnUse">
							<stop  offset="0" style="stop-color:#FF2711"/>
							<stop  offset="1" style="stop-color:#8C1500"/>
						</radialGradient>
						<path class="st32" d="M206.9,513.4c40.1,0,51.3-6.2,55.8-8.9c-0.2-6.2-0.7-11-1.5-14.2c-7.2,2.3-26,6.8-54.3,6.8
							c-28.3,0-40.7-3.4-54.2-6.9c-0.4,3.5-1.6,9.6-1.6,14.3C158.8,507.2,176.3,513.4,206.9,513.4z"/>
						<polygon class="st33" points="220.6,499.1 218.3,504.9 223.6,508.2 217.8,505.9 214.5,511.2 216.7,505.4 211.5,502.1 
							217.3,504.3 						"/>
					</g>
				</g>
				<g>
					<g>
						<path class="st34" d="M311.8,413.6c2.1-2.5,1.8-6.3-0.7-8.5l0,0c-2.5-2.1-6.3-1.8-8.5,0.7l-158,188.5
							c-2.1,2.5-1.8,6.3,0.7,8.5l0,0c2.5,2.1,6.3,1.8,8.5-0.7L311.8,413.6z"/>
						<path class="st35" d="M187.2,562.3l-33.4,39.8c-2.1,2.5-5.9,2.9-8.5,0.7c-2.5-2.1-2.9-5.9-0.7-8.5l33.4-39.8L187.2,562.3z"/>
					</g>
					<g>
						<polygon class="st36" points="313.7,426.8 315.4,441.8 301.7,448 316.4,450.9 318.1,465.8 325.5,452.6 340.3,455.6 
							330.2,444.6 337.7,431.7 323.9,437.9 						"/>
						<polygon class="st36" points="316.7,357.9 310.6,367.7 299.4,364.9 306.8,373.6 300.7,383.2 311.4,378.9 318.8,387.8 
							318,376.4 328.7,372.3 317.5,369.4 						"/>
						<polygon class="st36" points="338,383.8 338.1,393 329.3,396 338.1,398.6 338.2,407.8 343.5,400.3 352.3,403 346.9,395.7 
							352.3,388.3 343.5,391.2 						"/>
						<polygon class="st36" points="348.9,341.1 341.5,346.6 334,341.2 336.9,349.9 329.5,355.3 338.8,355.3 341.7,364 344.4,355.3 
							353.6,355.3 346.1,349.9 						"/>
					</g>
				</g>
				<g>
					<polygon class="st37" points="96.7,579 97.9,589.6 88.1,594.1 98.6,596.1 99.8,606.7 105.1,597.3 115.6,599.5 108.4,591.7 
						113.7,582.5 103.9,586.9 					"/>
					<polygon class="st37" points="127.5,552 124.5,557.9 118,556.9 122.6,561.4 119.7,567.3 125.5,564.2 130.2,568.9 129.1,562.5 
						135,559.5 128.5,558.5 					"/>
				</g>
			</g>
		</g>
	</g>
</g>
</svg>
